<svg width="103" height="19" viewBox="0 0 103 19" fill="none" xmlns="http://www.w3.org/2000/svg">
<path d="M3.69873 14.9116V4.03516L0.0610352 0.495117H8.89893L15.0146 9.91895L20.52 0.495117H29.9072L26.0986 3.47363V14.8994L29.6509 18H16.4917L19.9097 14.8994V8.58838L14.6606 18H12.8906L7.01904 8.68604V14.9116L10.6934 18H0.512695L3.69873 14.9116ZM31.3232 11.4448C31.3232 10.452 31.4657 9.57715 31.7505 8.82031C32.0435 8.06348 32.4341 7.41243 32.9224 6.86719C33.4188 6.3138 33.9925 5.854 34.6436 5.48779C35.3027 5.12158 36.0026 4.82861 36.7432 4.60889C37.4837 4.38916 38.2446 4.23454 39.0259 4.14502C39.8153 4.0555 40.5802 4.01074 41.3208 4.01074C42.5008 4.01074 43.5994 4.14095 44.6167 4.40137C45.6421 4.66178 46.5291 5.08089 47.2778 5.65869C48.0265 6.23649 48.6125 6.9974 49.0356 7.94141C49.467 8.87728 49.6826 10.0207 49.6826 11.3716H37.7563C37.7889 12.2179 37.9313 12.9178 38.1836 13.4712C38.444 14.0164 38.7777 14.4518 39.1846 14.7773C39.5915 15.0947 40.0553 15.3185 40.5762 15.4487C41.097 15.5789 41.6341 15.644 42.1875 15.644C42.6839 15.644 43.221 15.6156 43.7988 15.5586C44.3766 15.5016 44.9544 15.3958 45.5322 15.2412C46.11 15.0785 46.6634 14.8587 47.1924 14.582C47.7214 14.3053 48.1812 13.9432 48.5718 13.4956L49.8169 14.4722C49.6134 14.9686 49.3286 15.4121 48.9624 15.8027C48.5962 16.1934 48.1771 16.5392 47.7051 16.8403C47.2331 17.1333 46.7204 17.3856 46.167 17.5972C45.6217 17.8006 45.0602 17.9674 44.4824 18.0977C43.9046 18.2279 43.3268 18.3215 42.749 18.3784C42.1712 18.4435 41.6178 18.4761 41.0889 18.4761C39.5996 18.4761 38.2528 18.3215 37.0483 18.0122C35.8521 17.703 34.8267 17.2513 33.9722 16.6572C33.1258 16.055 32.4707 15.3185 32.0068 14.4478C31.5511 13.5688 31.3232 12.5679 31.3232 11.4448ZM43.7744 9.46729C43.7744 8.86507 43.7174 8.36051 43.6035 7.95361C43.4977 7.53857 43.335 7.20492 43.1152 6.95264C42.8955 6.70036 42.6188 6.52132 42.2852 6.41553C41.9596 6.3016 41.5771 6.24463 41.1377 6.24463C40.21 6.24463 39.4735 6.52539 38.9282 7.08691C38.383 7.64844 38.0249 8.44189 37.854 9.46729H43.7744ZM54.6753 14.9116V4.03516L51.0376 0.495117H59.8755L65.9912 9.91895L71.4966 0.495117H80.8838L77.0752 3.47363V14.8994L80.6274 18H67.4683L70.8862 14.8994V8.58838L65.6372 18H63.8672L57.9956 8.68604V14.9116L61.6699 18H51.4893L54.6753 14.9116ZM82.2998 11.2495C82.2998 10.0207 82.548 8.95459 83.0444 8.05127C83.549 7.13981 84.2489 6.38704 85.144 5.79297C86.0392 5.19076 87.1012 4.74316 88.3301 4.4502C89.5589 4.15723 90.9017 4.01074 92.3584 4.01074C93.8151 4.01074 95.1579 4.15723 96.3867 4.4502C97.6156 4.74316 98.6776 5.19076 99.5728 5.79297C100.468 6.38704 101.164 7.13981 101.66 8.05127C102.165 8.95459 102.417 10.0207 102.417 11.2495C102.417 12.5272 102.165 13.6217 101.66 14.5332C101.164 15.4447 100.468 16.1934 99.5728 16.7793C98.6776 17.3652 97.6156 17.7925 96.3867 18.061C95.1579 18.3377 93.8151 18.4761 92.3584 18.4761C90.9017 18.4761 89.5589 18.3377 88.3301 18.061C87.1012 17.7925 86.0392 17.3652 85.144 16.7793C84.2489 16.1934 83.549 15.4447 83.0444 14.5332C82.548 13.6217 82.2998 12.5272 82.2998 11.2495ZM88.7207 11.2495C88.7207 11.9982 88.8143 12.6777 89.0015 13.2881C89.1968 13.8984 89.4572 14.4193 89.7827 14.8506C90.1164 15.2738 90.5029 15.6034 90.9424 15.8394C91.39 16.0672 91.862 16.1812 92.3584 16.1812C92.8548 16.1812 93.3228 16.0672 93.7622 15.8394C94.2098 15.6034 94.5964 15.2738 94.9219 14.8506C95.2555 14.4193 95.516 13.8984 95.7031 13.2881C95.8984 12.6777 95.9961 11.9982 95.9961 11.2495C95.9961 10.4927 95.8984 9.80501 95.7031 9.18652C95.516 8.56803 95.2555 8.03906 94.9219 7.59961C94.5964 7.16016 94.2098 6.81836 93.7622 6.57422C93.3228 6.33008 92.8548 6.20801 92.3584 6.20801C91.862 6.20801 91.39 6.33008 90.9424 6.57422C90.5029 6.81836 90.1164 7.16016 89.7827 7.59961C89.4572 8.03906 89.1968 8.56803 89.0015 9.18652C88.8143 9.80501 88.7207 10.4927 88.7207 11.2495Z" fill="#4475ED"/>
</svg>
