<svg width="30" height="30" viewBox="0 0 30 30" fill="none" xmlns="http://www.w3.org/2000/svg">
<g clip-path="url(#clip0_19_8)">
<path d="M23.2263 2.675L15.395 0.0637458C15.1386 -0.0216555 14.8614 -0.0216555 14.605 0.0637458L6.77375 2.675C5.52863 3.0886 4.44552 3.88407 3.67831 4.94838C2.91109 6.0127 2.4988 7.29173 2.5 8.60375V15C2.5 24.4537 14 29.675 14.4925 29.8925C14.6523 29.9635 14.8252 30.0002 15 30.0002C15.1748 30.0002 15.3477 29.9635 15.5075 29.8925C16 29.675 27.5 24.4537 27.5 15V8.60375C27.5012 7.29173 27.0889 6.0127 26.3217 4.94838C25.5545 3.88407 24.4714 3.0886 23.2263 2.675ZM20.8975 12.1462L15.5575 17.4862C15.339 17.7062 15.0789 17.8806 14.7925 17.9993C14.506 18.1179 14.1988 18.1785 13.8888 18.1775H13.8475C13.5311 18.1727 13.219 18.1037 12.93 17.9748C12.641 17.8459 12.3812 17.6597 12.1663 17.4275L9.28375 14.4275C9.15892 14.3117 9.05906 14.1716 8.99032 14.0158C8.92157 13.86 8.88539 13.6918 8.88398 13.5215C8.88257 13.3512 8.91597 13.1824 8.98213 13.0255C9.04829 12.8686 9.14581 12.7269 9.26871 12.609C9.39162 12.4911 9.53731 12.3996 9.69685 12.3401C9.85639 12.2805 10.0264 12.2542 10.1965 12.2627C10.3666 12.2712 10.5331 12.3144 10.6859 12.3896C10.8387 12.4648 10.9745 12.5704 11.085 12.7L13.89 15.625L19.125 10.375C19.3608 10.1473 19.6765 10.0213 20.0043 10.0242C20.332 10.027 20.6455 10.1585 20.8773 10.3902C21.109 10.622 21.2405 10.9355 21.2433 11.2632C21.2462 11.591 21.1202 11.9067 20.8925 12.1425L20.8975 12.1462Z" fill="url(#paint0_linear_19_8)"/>
</g>
<defs>
<linearGradient id="paint0_linear_19_8" x1="-6.875" y1="-7.50042" x2="44.6584" y2="25.9573" gradientUnits="userSpaceOnUse">
<stop stop-color="#2400FF"/>
<stop offset="1" stop-color="#FF0000"/>
</linearGradient>
<clipPath id="clip0_19_8">
<rect width="30" height="30" fill="white"/>
</clipPath>
</defs>
</svg>
