<svg width="40" height="36" viewBox="0 0 40 36" fill="none" xmlns="http://www.w3.org/2000/svg">
<path d="M37.9433 3.95478C37.3343 3.675 36.6636 3.60145 36.0165 3.74352C35.3695 3.88558 34.7754 4.23682 34.31 4.75251L30 9.5058L22.3567 1.07633C21.7316 0.387158 20.8839 0 20 0C19.1161 0 18.2684 0.387158 17.6433 1.07633L10 9.5058L5.69 4.75251C5.22383 4.23855 4.62995 3.88855 3.98344 3.74677C3.33693 3.60499 2.66682 3.67779 2.05782 3.95596C1.44882 4.23414 0.928276 4.7052 0.561995 5.3096C0.195714 5.914 0.000140748 6.6246 0 7.35157L0 26.8096C0.00264643 29.2461 0.88147 31.5821 2.4437 33.305C4.00593 35.0279 6.12401 35.9971 8.33333 36H31.6667C33.876 35.9971 35.9941 35.0279 37.5563 33.305C39.1185 31.5821 39.9974 29.2461 40 26.8096V7.35157C40.0002 6.62454 39.8049 5.91379 39.4388 5.30918C39.0727 4.70456 38.5523 4.23323 37.9433 3.95478V3.95478Z" fill="url(#paint0_linear_16_56)"/>
<defs>
<linearGradient id="paint0_linear_16_56" x1="-15" y1="-9" x2="52" y2="49" gradientUnits="userSpaceOnUse">
<stop stop-color="#2400FF"/>
<stop offset="1" stop-color="#FF0000"/>
</linearGradient>
</defs>
</svg>
