<svg width="30" height="30" viewBox="0 0 30 30" fill="none" xmlns="http://www.w3.org/2000/svg">
<path fill-rule="evenodd" clip-rule="evenodd" d="M27.5 25.5226C24.4418 21.7895 21.7261 19.6712 19.3527 19.1676C16.9794 18.6641 14.7198 18.588 12.5739 18.9394V25.625L2.5 14.7158L12.5739 4.375V10.7294C16.5417 10.7607 19.9149 12.1842 22.6934 15C25.4721 17.8158 27.0742 21.3233 27.5 25.5226Z" fill="url(#paint0_linear_35_16)"/>
<path fill-rule="evenodd" clip-rule="evenodd" d="M12.927 3.50654C13.2803 3.65019 13.5114 3.99358 13.5114 4.375V9.82403C17.3297 10.0598 20.6268 11.571 23.3607 14.3415C26.3 17.3201 27.9869 21.0312 28.4327 25.428C28.4744 25.8395 28.2416 26.2297 27.8596 26.3883C27.4777 26.547 27.0369 26.4366 26.7748 26.1167C23.7388 22.4107 21.1981 20.5175 19.1582 20.0847C17.1783 19.6646 15.2977 19.5585 13.5114 19.7567V25.625C13.5114 26.011 13.2748 26.3575 12.9153 26.4981C12.5559 26.6387 12.147 26.5446 11.8851 26.261L1.81124 15.3518C1.47304 14.9856 1.48061 14.4187 1.82848 14.0616L11.9024 3.72081C12.1685 3.44761 12.5736 3.36288 12.927 3.50654ZM3.79201 14.7331L11.6364 23.2279V18.9394C11.6364 18.4801 11.9691 18.0884 12.4224 18.0142C14.6957 17.642 17.0733 17.7256 19.5473 18.2505C21.5789 18.6816 23.7142 20.1093 25.9555 22.3847C25.214 19.7965 23.9029 17.5603 22.0261 15.6585L22.0261 15.6585C19.4225 13.02 16.2869 11.6963 12.5665 11.6668C12.0516 11.6628 11.6364 11.2442 11.6364 10.7294V6.68085L3.79201 14.7331Z" fill="url(#paint1_linear_35_16)"/>
<defs>
<linearGradient id="paint0_linear_35_16" x1="-6.875" y1="-0.9375" x2="32.9347" y2="35.5518" gradientUnits="userSpaceOnUse">
<stop stop-color="#2400FF"/>
<stop offset="1" stop-color="#FF0000"/>
</linearGradient>
<linearGradient id="paint1_linear_35_16" x1="-8.51564" y1="-2.3438" x2="34.7576" y2="36.8377" gradientUnits="userSpaceOnUse">
<stop stop-color="#2400FF"/>
<stop offset="1" stop-color="#FF0000"/>
</linearGradient>
</defs>
</svg>
